<svg xmlns="http://www.w3.org/2000/svg" id="Outline" viewBox="0 0 24 24" width="300" height="300" version="1.1" xmlns:xlink="http://www.w3.org/1999/xlink" xmlns:svgjs="http://svgjs.dev/svgjs"><g width="100%" height="100%" transform="matrix(1,0,0,1,0,0)"><path d="M12,6A3,3,0,0,0,9,9V21a3,3,0,0,0,6,0V9A3,3,0,0,0,12,6Z" fill="#ffffff" fill-opacity="1" data-original-color="#000000ff" stroke="none" stroke-opacity="1"/><path d="M21,0a3,3,0,0,0-3,3V21a3,3,0,0,0,6,0V3A3,3,0,0,0,21,0Z" fill="#ffffff" fill-opacity="1" data-original-color="#000000ff" stroke="none" stroke-opacity="1"/><path d="M3,12a3,3,0,0,0-3,3v6a3,3,0,0,0,6,0V15A3,3,0,0,0,3,12Z" fill="#ffffff" fill-opacity="1" data-original-color="#000000ff" stroke="none" stroke-opacity="1"/></g></svg>