<svg xmlns="http://www.w3.org/2000/svg" id="Layer_1" data-name="Layer 1" viewBox="0 0 24 24" width="300" height="300" version="1.1" xmlns:xlink="http://www.w3.org/1999/xlink" xmlns:svgjs="http://svgjs.dev/svgjs"><g width="100%" height="100%" transform="matrix(1,0,0,1,0,0)"><path d="M10,19c0-1.1,.9-2,2-2s2,.9,2,2-.9,2-2,2-2-.9-2-2Zm8.36-4.24c.59-.59,.59-1.54,0-2.12-3.51-3.51-9.22-3.51-12.73,0-.59,.59-.59,1.54,0,2.12s1.54,.59,2.12,0c2.34-2.34,6.15-2.34,8.49,0,.29,.29,.68,.44,1.06,.44s.77-.15,1.06-.44Zm5.17-4.67c.6-.57,.62-1.52,.05-2.12-.09-.09-.18-.19-.27-.28-3.02-3.02-7.04-4.69-11.31-4.69S3.71,4.66,.69,7.68c-.09,.09-.18,.19-.27,.28-.57,.6-.55,1.55,.05,2.12,.6,.57,1.55,.55,2.12-.05l.22-.23c2.46-2.46,5.72-3.81,9.19-3.81s6.74,1.35,9.2,3.81l.22,.22c.29,.31,.69,.46,1.08,.46,.37,0,.75-.14,1.04-.41Z" fill="#fff9f9" fill-opacity="1" data-original-color="#000000ff" stroke="none" stroke-opacity="1"/></g></svg>